<?xml version="1.0" standalone="no"?>
<!DOCTYPE svg PUBLIC "-//W3C//DTD SVG 20010904//EN"
 "http://www.w3.org/TR/2001/REC-SVG-20010904/DTD/svg10.dtd">
<svg version="1.0" xmlns="http://www.w3.org/2000/svg"
 width="1536.000000pt" height="1024.000000pt" viewBox="0 0 1536.000000 1024.000000"
 preserveAspectRatio="xMidYMid meet">

<g transform="translate(0.000000,1024.000000) scale(0.100000,-0.100000)"
fill="#000000" stroke="none">
<path d="M3610 7054 c-282 -38 -524 -135 -734 -293 -323 -244 -527 -566 -591
-935 -19 -113 -20 -345 0 -474 36 -240 137 -484 283 -677 209 -279 475 -477
784 -584 168 -57 280 -75 488 -75 198 0 316 15 465 60 13 4 16 3 10 -3 -9 -9
-104 -38 -158 -49 -169 -32 -528 -30 -667 5 -250 63 -469 177 -694 360 -108
87 -277 288 -351 416 -28 47 -30 48 -37 25 -7 -23 -7 -22 -4 4 2 19 -10 57
-35 110 -36 77 -50 97 -30 43 8 -21 6 -26 -11 -30 -11 -3 -31 -1 -45 4 -23 8
-25 7 -20 -11 7 -27 -1 -25 -13 3 -8 19 -9 17 -9 -15 -1 -44 -17 -57 -37 -32
-14 20 21 -67 58 -140 109 -217 365 -486 606 -635 53 -33 71 -52 30 -30 -65
34 -199 130 -296 214 -355 305 -574 749 -598 1215 -7 139 6 307 36 440 53 245
187 507 345 678 37 40 62 72 57 72 -13 0 -174 -186 -219 -253 -46 -68 -145
-266 -171 -342 -56 -164 -92 -381 -92 -553 0 -393 171 -844 435 -1145 235
-270 614 -492 955 -561 270 -54 598 -36 856 49 265 87 534 275 654 457 36 56
46 65 61 57 26 -14 2966 -12 2974 2 4 6 18 70 30 142 13 73 38 211 55 307 17
96 40 225 51 285 11 61 23 146 26 191 15 206 -81 383 -257 472 -118 61 -151
67 -365 67 -214 0 -278 -13 -385 -78 l-55 -33 -62 43 c-35 23 -80 48 -100 55
-28 9 -160 13 -491 16 l-452 3 -17 -29 -17 -30 -27 29 -27 29 -236 0 c-148 0
-244 -4 -259 -11 -13 -6 -34 -32 -47 -57 -20 -42 -23 -45 -30 -26 -5 12 -11
43 -15 70 -4 27 -14 76 -22 108 -49 198 -200 374 -404 471 -143 68 -148 68
-811 72 l-597 4 -15 -23 c-19 -30 -146 -525 -148 -580 -1 -34 3 -45 24 -61
l25 -19 -29 -136 c-16 -76 -37 -177 -48 -227 -20 -96 -109 -523 -166 -795 -53
-256 -49 -274 67 -290 85 -13 1419 -12 1534 0 119 13 181 32 252 79 32 22 60
38 62 35 9 -9 -100 -122 -165 -171 -209 -158 -455 -249 -738 -274 -294 -26
-561 19 -793 134 -376 187 -679 527 -802 903 -127 388 -81 836 119 1170 77
129 131 196 247 311 211 208 446 331 753 394 97 20 143 24 300 24 201 -1 320
-18 479 -71 89 -30 265 -115 335 -162 70 -47 70 -47 61 -31 -24 38 -221 162
-337 212 -238 102 -514 138 -788 101z m890 -564 c202 -20 342 -80 455 -195 81
-83 126 -153 163 -257 24 -68 26 -85 26 -238 1 -136 -4 -185 -23 -275 -68
-322 -154 -504 -318 -675 -119 -125 -254 -209 -443 -274 -189 -66 -210 -68
-778 -73 l-513 -5 6 24 c6 26 104 537 201 1041 36 185 67 344 70 352 6 14 89
36 204 54 89 13 270 25 270 17 0 -3 -13 -66 -29 -139 -36 -158 -181 -898 -181
-918 0 -21 500 -9 585 15 280 77 485 333 526 655 31 241 -47 413 -213 471
-104 36 -198 42 -579 37 -389 -5 -445 -11 -571 -62 -32 -12 -58 -20 -58 -16 0
3 23 109 50 234 28 125 50 230 50 232 0 9 1006 4 1100 -5z m1246 -652 c-3 -13
-22 -111 -41 -218 -20 -107 -74 -395 -121 -639 -46 -244 -84 -452 -84 -462 0
-18 -10 -19 -196 -19 -181 0 -195 1 -190 18 5 17 18 88 161 892 41 234 77 431
80 438 3 9 53 12 200 12 l195 0 -4 -22z m1064 6 c65 -19 118 -52 153 -94 l27
-31 27 25 c43 40 134 84 209 102 54 12 108 15 249 12 178 -4 181 -5 259 -37
209 -89 281 -263 227 -556 -67 -370 -123 -672 -132 -715 l-11 -50 -189 0
c-111 0 -189 4 -189 9 0 6 30 175 66 378 38 210 68 411 71 468 5 98 5 101 -21
132 -35 41 -78 53 -196 53 -177 0 -229 -52 -269 -270 -5 -30 -39 -212 -75
-404 -36 -192 -66 -353 -66 -357 0 -5 -88 -9 -196 -9 -181 0 -195 1 -190 18 5
17 61 328 116 647 60 343 44 365 -264 365 -152 0 -156 -1 -156 -21 0 -11 -36
-211 -80 -442 -44 -232 -85 -455 -92 -494 l-12 -73 -188 0 c-135 0 -188 3
-188 12 0 6 27 165 61 352 33 188 71 406 85 486 14 80 38 217 54 305 17 88 30
170 30 183 l0 22 413 0 c348 0 422 -3 467 -16z m-4573 -986 c-3 -8 -6 -5 -6 6
-1 11 2 17 5 13 3 -3 4 -12 1 -19z m2588 -499 c-11 -16 -93 -90 -133 -120 -31
-22 -82 -44 -82 -34 0 1 27 19 61 40 34 21 82 57 108 81 47 45 57 52 46 33z
m-225 -164 c0 -2 -10 -9 -22 -15 -22 -11 -22 -10 -4 4 21 17 26 19 26 11z
m-120 -65 c-8 -5 -19 -10 -25 -10 -5 0 -3 5 5 10 8 5 20 10 25 10 6 0 3 -5 -5
-10z m-1445 -88 c22 -12 37 -21 34 -22 -10 0 -139 60 -139 65 0 6 51 -15 105
-43z m125 -52 c18 -12 2 -12 -25 0 -13 6 -15 9 -5 9 8 0 22 -4 30 -9z m107
-36 c-3 -3 -12 -4 -19 -1 -8 3 -5 6 6 6 11 1 17 -2 13 -5z m170 -40 c-3 -3
-12 -4 -19 -1 -8 3 -5 6 6 6 11 1 17 -2 13 -5z m71 -11 c-10 -2 -28 -2 -40 0
-13 2 -5 4 17 4 22 1 32 -1 23 -4z m399 1 c-3 -3 -12 -4 -19 -1 -8 3 -5 6 6 6
11 1 17 -2 13 -5z m-134 -11 c-40 -2 -107 -2 -150 0 -43 1 -10 3 72 3 83 0
118 -2 78 -3z"/>
<path d="M4500 6936 c0 -2 14 -14 30 -26 17 -12 30 -19 30 -16 0 2 -13 14 -30
26 -16 12 -30 19 -30 16z"/>
<path d="M5488 6496 c-76 -31 -132 -77 -157 -130 -100 -206 15 -397 239 -399
120 -1 213 53 277 161 38 63 43 160 13 230 -59 137 -225 199 -372 138z m193
-17 c88 -30 139 -95 139 -179 -1 -133 -104 -230 -244 -230 -85 0 -153 42 -187
115 -25 54 -23 110 5 171 48 103 178 159 287 123z"/>
<path d="M10320 6511 c-91 -20 -176 -86 -217 -169 -22 -46 -27 -70 -27 -127 0
-85 23 -136 86 -189 52 -45 102 -60 193 -60 307 3 425 415 152 529 -45 19
-139 27 -187 16z m203 -60 c56 -34 82 -85 81 -156 -2 -125 -90 -215 -227 -231
-185 -22 -297 147 -200 301 28 46 84 90 132 106 14 5 60 7 102 5 57 -2 85 -8
112 -25z"/>
<path d="M8552 6498 c-17 -22 -36 -108 -182 -843 -78 -390 -164 -820 -191
-954 -46 -229 -48 -245 -33 -263 16 -17 52 -18 765 -18 646 0 750 2 762 15 16
15 40 111 77 305 26 138 21 169 -32 171 -18 1 -243 1 -500 0 -333 0 -468 2
-468 10 0 6 34 185 75 398 105 534 202 1047 210 1102 6 42 4 48 -20 68 -26 20
-38 21 -240 21 -158 0 -215 -3 -223 -12z m438 -35 c0 -5 -7 -37 -16 -73 -14
-62 -90 -428 -240 -1165 -37 -181 -71 -334 -76 -340 -11 -11 -10 -8 32 229 17
93 29 178 27 190 -2 14 -7 7 -14 -24 -6 -25 -11 -36 -12 -25 -2 18 -3 18 -17
-5 l-14 -25 4 30 c3 26 0 30 -19 30 -13 0 -21 -3 -19 -7 2 -4 0 -9 -6 -13 -5
-3 -10 -2 -10 3 0 6 -7 13 -16 16 -13 5 -14 4 -6 -7 9 -10 8 -14 -3 -14 -8 0
-15 7 -16 16 0 9 -3 11 -5 4 -3 -7 -14 -9 -32 -4 -15 4 -33 6 -39 4 -7 -3 -13
1 -13 8 0 7 -3 9 -7 6 -3 -4 -12 -2 -20 5 -11 9 -12 7 -6 -8 6 -16 4 -17 -9
-7 -8 7 -17 10 -20 7 -3 -3 -2 16 3 42 5 26 7 49 5 51 -5 6 -26 -85 -29 -124
-1 -18 -5 -33 -8 -33 -4 0 -9 -19 -13 -42 -4 -24 -13 -70 -20 -103 -8 -33 -19
-87 -26 -120 -6 -33 -22 -107 -35 -165 -23 -101 -55 -267 -55 -283 0 -4 309
-6 687 -5 l688 3 26 130 c15 72 29 146 31 165 l3 35 -450 -3 c-453 -2 -600 2
-574 19 14 9 1049 13 1049 5 0 -3 -16 -77 -35 -165 -19 -88 -35 -169 -35 -180
l0 -21 -705 0 c-388 0 -705 1 -705 3 0 2 14 72 30 157 17 85 55 290 86 455 30
165 75 406 100 535 25 129 53 280 64 335 10 55 35 187 55 293 l37 192 199 0
c110 0 199 -3 199 -7z m-338 -1200 c-6 -2 -9 -10 -6 -15 4 -7 2 -8 -5 -4 -13
9 -5 26 12 25 9 0 8 -2 -1 -6z"/>
<path d="M11320 6494 c-245 -48 -420 -226 -480 -488 l-22 -96 -82 0 c-98 0
-121 -13 -137 -76 -13 -49 -29 -59 -29 -16 0 49 -11 70 -42 81 -18 7 -116 11
-233 11 -238 0 -238 0 -261 -95 -37 -158 -264 -1307 -264 -1337 0 -19 5 -39
12 -46 19 -19 3131 -17 3150 2 16 16 81 339 76 381 -2 20 -13 36 -34 50 l-31
21 69 24 c40 14 76 33 83 44 8 12 31 100 51 196 60 284 52 409 -36 543 -66 98
-204 174 -371 203 -143 25 -449 15 -579 -19 -114 -30 -189 -62 -267 -115 -69
-47 -181 -162 -214 -221 -23 -41 -45 -56 -35 -23 14 45 66 310 66 337 0 53 -8
55 -202 55 -98 0 -178 3 -178 6 0 12 24 51 48 77 40 42 106 57 258 57 76 0
143 5 157 11 26 12 29 19 87 258 36 147 36 145 10 171 -19 19 -33 20 -257 19
-164 -1 -261 -5 -313 -15z m540 -21 c0 -5 -18 -81 -41 -170 l-42 -162 -101 6
c-111 6 -241 -9 -286 -32 -59 -31 -97 -89 -123 -188 l-15 -57 205 0 205 0 -6
-22 c-3 -13 -22 -94 -43 -180 l-37 -158 -198 0 c-109 0 -198 -3 -198 -6 0 -5
-29 -140 -144 -664 -13 -58 -34 -158 -47 -222 l-24 -118 -85 2 -85 2 80 3 81
4 32 157 c42 201 102 511 102 523 0 5 -11 9 -25 9 -24 0 -30 11 -26 46 1 7 -9
9 -24 6 -14 -2 -25 -8 -25 -13 0 -5 -5 -9 -11 -9 -5 0 -7 5 -4 10 3 6 -1 10
-10 10 -9 0 -14 4 -10 9 3 5 1 12 -5 16 -5 3 -10 2 -10 -4 0 -6 -8 -7 -17 -4
-13 5 -15 2 -10 -13 6 -15 2 -13 -15 6 -14 16 -19 19 -15 8 4 -10 2 -18 -3
-18 -6 0 -10 4 -10 9 0 5 -7 12 -16 15 -14 5 -15 4 -4 -9 11 -13 10 -14 -11
-7 -17 7 -25 19 -29 43 -5 31 -7 26 -23 -41 -9 -41 -23 -104 -31 -140 -8 -36
-26 -117 -41 -180 -23 -100 -67 -305 -81 -379 -3 -14 -7 -28 -10 -33 -5 -8 21
-16 76 -21 20 -2 7 -5 -27 -5 -35 -1 -63 1 -63 6 0 4 23 122 50 262 99 502
142 732 138 735 -2 2 -47 5 -101 6 -69 1 -97 5 -97 14 0 10 47 244 65 322 5
21 11 22 107 25 l102 3 22 105 c32 150 40 172 92 250 96 142 232 216 447 243
58 8 425 7 425 0z m-1350 -605 c0 -2 -18 -88 -41 -193 -22 -104 -69 -327 -104
-495 -119 -569 -133 -631 -140 -638 -4 -4 -4 4 -1 18 46 201 130 669 121 678
-3 3 -5 -4 -5 -16 0 -12 -4 -22 -10 -22 -5 0 -10 4 -10 9 0 14 -52 20 -72 8
-14 -9 -24 -7 -49 7 -18 10 -29 14 -25 7 4 -6 1 -11 -9 -11 -9 0 -19 9 -22 20
-5 19 -7 20 -29 5 -31 -20 -42 -19 -65 8 l-18 22 -1 -23 c0 -13 -4 -31 -9 -41
-6 -10 -22 -73 -36 -142 -15 -68 -47 -216 -71 -327 -24 -112 -44 -210 -44
-217 0 -9 15 -15 38 -18 35 -3 35 -4 -9 -5 l-46 -2 24 128 c24 131 43 231 68
362 42 225 90 477 120 645 20 105 37 200 40 212 5 21 8 21 205 23 110 0 200
-1 200 -2z m2298 -27 c103 -30 167 -65 220 -119 108 -111 123 -231 64 -497
l-34 -150 -476 3 c-262 1 -478 5 -480 7 -8 8 49 238 64 262 14 22 17 23 287
25 l272 3 3 46 c6 87 -53 128 -203 139 -131 10 -255 -4 -318 -36 -111 -55
-145 -113 -193 -328 -43 -195 -29 -285 55 -334 l46 -27 418 -3 c312 -2 417 -6
417 -15 0 -24 -62 -302 -69 -310 -4 -4 -151 -6 -327 -4 l-319 2 321 3 322 2 5
33 c12 77 38 204 46 229 l10 27 -402 3 -402 3 -57 27 c-104 49 -119 119 -83
403 l5 40 -17 -30 c-10 -16 -16 -33 -15 -37 1 -5 -2 -8 -8 -8 -5 0 -10 5 -10
11 0 5 -5 7 -10 4 -11 -7 -42 19 -35 29 3 3 -1 1 -7 -4 -10 -9 -10 -13 2 -20
8 -5 11 -10 5 -10 -5 1 -19 7 -29 15 -11 8 -24 15 -30 15 -5 0 -1 -7 10 -15
18 -14 18 -14 -6 -16 -14 -1 -32 -2 -40 -3 -8 -1 -23 2 -34 7 -12 6 -16 5 -12
-1 11 -18 -19 -20 -55 -4 -18 8 -41 14 -49 13 -8 -1 -4 5 9 13 24 13 24 14 4
25 -26 13 -30 5 -49 -94 -17 -83 -18 -219 -3 -298 14 -80 62 -169 117 -218 46
-42 173 -108 209 -110 10 0 13 -3 6 -6 -38 -15 -187 70 -251 142 -81 93 -112
191 -112 361 0 347 162 623 441 754 136 63 248 80 504 75 168 -2 212 -6 273
-24z m-2481 -673 c-3 -8 -6 -5 -6 6 -1 11 2 17 5 13 3 -3 4 -12 1 -19z m-103
-653 c-5 -12 -25 -15 -108 -13 l-101 2 95 3 c52 2 99 8 104 13 14 14 16 12 10
-5z m1789 8 c-7 -2 -21 -2 -30 0 -10 3 -4 5 12 5 17 0 24 -2 18 -5z m60 -10
c-7 -2 -21 -2 -30 0 -10 3 -4 5 12 5 17 0 24 -2 18 -5z m-1286 -9 c-3 -3 -12
-4 -19 -1 -8 3 -5 6 6 6 11 1 17 -2 13 -5z"/>
<path d="M11086 5223 c-6 -14 -5 -15 5 -6 7 7 10 15 7 18 -3 3 -9 -2 -12 -12z"/>
<path d="M11725 5459 c-4 -6 -5 -12 -2 -15 2 -3 7 2 10 11 7 17 1 20 -8 4z"/>
<path d="M12164 5201 c-4 -17 -10 -28 -14 -26 -5 3 -6 -4 -3 -15 3 -11 -2 -26
-11 -35 -9 -9 -14 -20 -11 -24 2 -5 200 -8 440 -8 371 0 435 2 435 14 0 8 5
11 10 8 18 -11 38 14 32 40 -2 14 -8 23 -12 20 -4 -2 -5 8 -2 23 5 25 4 26
-12 9 -21 -21 -33 -23 -17 -3 10 12 8 13 -10 9 -17 -5 -20 -3 -14 7 5 9 4 11
-4 6 -9 -6 -9 -11 0 -22 10 -12 6 -13 -20 -8 -20 4 -31 3 -31 -5 0 -6 -5 -11
-11 -11 -5 0 -7 5 -4 10 4 6 -15 10 -49 10 -41 0 -58 -4 -66 -17 -11 -17 -11
-17 -6 0 4 12 0 17 -16 17 -16 0 -18 -3 -9 -14 10 -12 8 -13 -8 -9 -12 3 -18
9 -15 14 3 5 -28 9 -70 8 -42 -1 -73 -5 -70 -10 3 -5 0 -9 -5 -9 -6 0 -11 7
-11 15 0 17 -12 19 -26 5 -7 -7 -19 -8 -37 -1 -14 6 -29 6 -31 2 -3 -5 -23 -6
-43 -2 -21 3 -75 6 -120 6 -45 0 -79 3 -77 7 7 11 -4 10 -26 -2 -14 -7 -23 -6
-34 6 -15 14 -17 13 -22 -15z"/>
</g>
</svg>
